<svg width="1251" height="613" viewBox="0 0 1251 613" fill="none" xmlns="http://www.w3.org/2000/svg">
<path fill-rule="evenodd" clip-rule="evenodd" d="M1072.2 32.3223L1187.56 358.583C1190.78 367.693 1184.03 377.25 1174.36 377.25H943.637C933.974 377.25 927.216 367.693 930.438 358.583L1045.8 32.3223C1050.2 19.8784 1067.8 19.8785 1072.2 32.3223ZM1025.06 24.9883C1036.37 -7.01017 1081.63 -7.01022 1092.94 24.9882L1208.3 351.249C1216.59 374.675 1199.21 399.25 1174.36 399.25H943.637C918.79 399.25 901.413 374.675 909.696 351.249L1025.06 24.9883ZM174 292.5V153.5C174 115.116 142.884 84 104.5 84C66.1162 84 35 115.116 35 153.5V167H64C68.9706 167 73 171.029 73 176C73 180.971 68.9706 185 64 185H35V194H64C68.9706 194 73 198.029 73 203C73 207.971 68.9706 212 64 212H35V221H64C68.9706 221 73 225.029 73 230C73 234.971 68.9706 239 64 239H35V292.5C35 330.884 66.1162 362 104.5 362C142.884 362 174 330.884 174 292.5ZM188 176.5C188 170.701 192.701 166 198.5 166C204.299 166 209 170.701 209 176.5V295.5V296V508.5C209 508.628 209 508.756 208.999 508.884L209 508.93L209 509H208.999C208.867 536.535 197.872 562.913 178.393 582.393C158.795 601.99 132.215 613 104.5 613C76.7849 613 50.2049 601.99 30.6073 582.393C11.1277 562.913 0.132756 536.535 0.00119444 509H0C0 508.961 0.000235161 508.923 0.000704728 508.884C0.000235008 508.756 0 508.628 0 508.5H0.0131188C0.142854 506.03 1.23034 503.686 3.07538 501.929C5.04451 500.054 7.71523 499 10.5 499C13.2848 499 15.9555 500.054 17.9246 501.929C19.8938 503.804 21 506.348 21 509H20.9015C21.0329 530.992 29.8257 552.054 45.3859 567.614C61.0639 583.292 82.3279 592.1 104.5 592.1C126.672 592.1 147.936 583.292 163.614 567.614C178.969 552.26 187.734 531.547 188.089 509.871C188.051 509.584 188.025 509.294 188.012 509H188L188 508.936L188.001 508.883L188.001 508.846C188.002 508.816 188.002 508.787 188.003 508.757C188.002 508.723 188.002 508.688 188.001 508.653L188.001 508.607C188 508.571 188 508.536 188 508.5V358.334C185.077 362.218 181.87 365.915 178.393 369.393C158.795 388.99 132.215 400 104.5 400C76.7849 400 50.2049 388.99 30.6073 369.393C11.1277 349.913 0.132756 323.535 0.00119444 296H0C0 295.961 0.00023516 295.923 0.000704727 295.884C0.000235008 295.756 0 295.628 0 295.5H0.0131188C0.142854 293.03 1.23034 290.686 3.07538 288.929C5.04451 287.054 7.71523 286 10.5 286C13.2848 286 15.9555 287.054 17.9246 288.929C19.8938 290.804 21 293.348 21 296H20.9015C21.0329 317.992 29.8257 339.054 45.3859 354.614C61.0639 370.292 82.3279 379.1 104.5 379.1C126.672 379.1 147.936 370.292 163.614 354.614C178.326 339.903 186.988 320.273 188 299.59V296V176.5ZM324 232.5C324 232.394 324.002 232.289 324.005 232.184C324.008 232.073 324.013 231.962 324.02 231.851C323.798 226.72 322.784 221.664 321.016 216.908C319.003 211.489 316.051 206.565 312.331 202.418C308.611 198.27 304.194 194.981 299.333 192.736C294.472 190.491 289.262 189.336 284 189.336C278.738 189.336 273.528 190.491 268.667 192.736C263.806 194.981 259.389 198.27 255.669 202.418C251.949 206.565 248.997 211.489 246.984 216.908C245.264 221.537 244.257 226.449 244 231.439L244 231.5V360.5C244 366.299 239.299 371 233.5 371C227.701 371 223 366.299 223 360.5V234V231.5C223 230.993 223.036 230.495 223.105 230.008C223.504 222.443 225.035 214.996 227.643 207.978C230.709 199.727 235.202 192.231 240.866 185.917C246.531 179.602 253.255 174.594 260.656 171.176C268.057 167.759 275.989 166 284 166C292.011 166 299.943 167.759 307.344 171.176C314.745 174.594 321.469 179.602 327.134 185.917C332.798 192.231 337.291 199.727 340.357 207.978C343.147 215.488 344.705 223.489 344.962 231.601C344.987 231.897 345 232.197 345 232.5V234V235.5C345 241.299 340.299 246 334.5 246C328.701 246 324 241.299 324 235.5V232.5ZM459 350C501.47 350 537 314.353 537 269C537 223.647 501.47 188 459 188C416.53 188 381 223.647 381 269C381 314.353 416.53 350 459 350ZM459 372C494.218 372 525.184 353.248 543 324.909V362C543 367.523 547.477 372 553 372C558.523 372 563 367.523 563 362V177C563 171.477 558.523 167 553 167C547.477 167 543 171.477 543 177V213.091C525.184 184.752 494.218 166 459 166C403.772 166 359 212.115 359 269C359 325.885 403.772 372 459 372ZM890 268C890 313.353 854.47 349 812 349C769.53 349 734 313.353 734 268C734 222.647 769.53 187 812 187C854.47 187 890 222.647 890 268ZM912 268C912 324.885 867.228 371 812 371C779.288 371 750.245 354.822 732 329.81V594C732 599.523 727.523 604 722 604C716.477 604 712 599.523 712 594V268V176C712 170.477 716.477 166 722 166C727.523 166 732 170.477 732 176V206.19C750.245 181.178 779.288 165 812 165C867.228 165 912 211.115 912 268ZM1251 18C1251 10.268 1244.73 4 1237 4C1229.27 4 1223 10.268 1223 18V387C1223 394.732 1229.27 401 1237 401C1244.73 401 1251 394.732 1251 387V18ZM636.45 176C614.105 176.027 596 194.149 596 216.5C596 229.082 599.131 239.548 604.39 246.574C609.37 253.226 616.722 257.5 627.5 257.5C628.99 257.5 630.41 257.796 631.706 258.333C654.621 261.072 671.241 266.866 682.308 276.856C695.169 288.466 698.5 303.807 698.5 319.5C698.5 354.018 670.518 382 636 382V371C636 382 635.994 382 635.988 382L635.974 382L635.944 382L635.87 381.999L635.819 381.999L635.745 381.998L635.671 381.997C635.515 381.994 635.314 381.989 635.071 381.98C634.584 381.962 633.927 381.929 633.122 381.866C631.517 381.74 629.303 381.495 626.68 381.016C621.48 380.067 614.405 378.149 607.215 374.21C599.963 370.237 592.527 364.163 586.946 354.991C581.352 345.796 578 334.105 578 319.5C578 313.425 582.925 308.5 589 308.5C595.075 308.5 600 313.425 600 319.5C600 330.645 602.523 338.266 605.741 343.556C608.973 348.869 613.287 352.451 617.785 354.915C622.345 357.414 627.02 358.714 630.632 359.374C632.415 359.7 633.874 359.857 634.839 359.933C635.077 359.952 635.283 359.965 635.455 359.975C635.631 359.985 635.772 359.991 635.874 359.995C635.963 359.998 636.022 359.999 636.05 360C658.395 359.973 676.5 341.851 676.5 319.5C676.5 306.751 673.831 298.842 667.567 293.187C660.722 287.008 647.591 281.648 622.061 279.46L622.078 279.257C606.978 277.877 594.979 270.714 586.778 259.758C577.898 247.895 574 232.361 574 216.5C574 181.982 601.982 154 636.5 154V165C636.5 154 636.506 154 636.512 154L636.526 154L636.556 154L636.63 154.001C636.685 154.001 636.751 154.002 636.829 154.003C636.985 154.006 637.186 154.011 637.429 154.02C637.916 154.038 638.573 154.071 639.378 154.134C640.983 154.26 643.197 154.505 645.82 154.984C651.02 155.933 658.095 157.851 665.285 161.79C672.537 165.763 679.973 171.837 685.554 181.009C691.148 190.204 694.5 201.895 694.5 216.5C694.5 222.575 689.575 227.5 683.5 227.5C677.425 227.5 672.5 222.575 672.5 216.5C672.5 205.355 669.977 197.734 666.759 192.444C663.527 187.131 659.213 183.549 654.715 181.085C650.155 178.586 645.48 177.286 641.868 176.626C640.085 176.3 638.626 176.143 637.661 176.067C637.181 176.029 636.828 176.013 636.626 176.005C636.537 176.002 636.478 176.001 636.45 176Z" fill="url(#paint0_linear_7_49)"/>
<defs>
<linearGradient id="paint0_linear_7_49" x1="625.5" y1="0.98941" x2="625.5" y2="613" gradientUnits="userSpaceOnUse">
<stop stop-color="#005734"/>
<stop offset="1" stop-color="#00BD71"/>
</linearGradient>
</defs>
</svg>
