<svg width="209" height="529" viewBox="0 0 209 529" fill="none" xmlns="http://www.w3.org/2000/svg">
<mask id="path-1-inside-1_10_10" fill="white">
<path fill-rule="evenodd" clip-rule="evenodd" d="M174 208.5V69.5C174 31.1162 142.884 0 104.5 0C66.1162 0 35 31.1162 35 69.5V83H64C68.9706 83 73 87.0294 73 92C73 96.9706 68.9706 101 64 101H35V110H64C68.9706 110 73 114.029 73 119C73 123.971 68.9706 128 64 128H35V137H64C68.9706 137 73 141.029 73 146C73 150.971 68.9706 155 64 155H35V208.5C35 246.884 66.1162 278 104.5 278C142.884 278 174 246.884 174 208.5ZM188 92.5C188 86.701 192.701 82 198.5 82C204.299 82 209 86.701 209 92.5V211.5V212V424.5C209 424.628 209 424.756 208.999 424.884C209 424.923 209 424.961 209 425H208.999C208.867 452.535 197.872 478.913 178.393 498.393C158.795 517.99 132.215 529 104.5 529C76.7849 529 50.2049 517.99 30.6073 498.393C11.1277 478.913 0.132756 452.535 0.00119444 425H0C0 424.961 0.00023516 424.923 0.000704727 424.884C0.000235008 424.756 0 424.628 0 424.5H0.0131188C0.142854 422.03 1.23034 419.686 3.07538 417.929C5.04451 416.054 7.71523 415 10.5 415C13.2848 415 15.9555 416.054 17.9246 417.929C19.8938 419.804 21 422.348 21 425H20.9015C21.0329 446.992 29.8257 468.054 45.3859 483.614C61.0639 499.292 82.3279 508.1 104.5 508.1C126.672 508.1 147.936 499.292 163.614 483.614C178.969 468.26 187.734 447.547 188.089 425.871C188.051 425.584 188.025 425.294 188.012 425H188C188 424.919 188.001 424.838 188.003 424.757C188.001 424.672 188 424.586 188 424.5V274.334C185.077 278.218 181.87 281.915 178.393 285.393C158.795 304.99 132.215 316 104.5 316C76.7849 316 50.2049 304.99 30.6073 285.393C11.1277 265.913 0.13276 239.535 0.00119451 212H0C0 211.961 0.000235175 211.923 0.00070477 211.884C0.000235022 211.756 0 211.628 0 211.5H0.0131196C0.142859 209.03 1.23034 206.686 3.07538 204.929C5.04451 203.054 7.71523 202 10.5 202C13.2848 202 15.9555 203.054 17.9246 204.929C19.8938 206.804 21 209.348 21 212H20.9015C21.0328 233.992 29.8257 255.054 45.3859 270.614C61.0639 286.292 82.3279 295.1 104.5 295.1C126.672 295.1 147.936 286.292 163.614 270.614C178.326 255.903 186.988 236.273 188 215.59V212V92.5Z"/>
</mask>
<path fill-rule="evenodd" clip-rule="evenodd" d="M174 208.5V69.5C174 31.1162 142.884 0 104.5 0C66.1162 0 35 31.1162 35 69.5V83H64C68.9706 83 73 87.0294 73 92C73 96.9706 68.9706 101 64 101H35V110H64C68.9706 110 73 114.029 73 119C73 123.971 68.9706 128 64 128H35V137H64C68.9706 137 73 141.029 73 146C73 150.971 68.9706 155 64 155H35V208.5C35 246.884 66.1162 278 104.5 278C142.884 278 174 246.884 174 208.5ZM188 92.5C188 86.701 192.701 82 198.5 82C204.299 82 209 86.701 209 92.5V211.5V212V424.5C209 424.628 209 424.756 208.999 424.884C209 424.923 209 424.961 209 425H208.999C208.867 452.535 197.872 478.913 178.393 498.393C158.795 517.99 132.215 529 104.5 529C76.7849 529 50.2049 517.99 30.6073 498.393C11.1277 478.913 0.132756 452.535 0.00119444 425H0C0 424.961 0.00023516 424.923 0.000704727 424.884C0.000235008 424.756 0 424.628 0 424.5H0.0131188C0.142854 422.03 1.23034 419.686 3.07538 417.929C5.04451 416.054 7.71523 415 10.5 415C13.2848 415 15.9555 416.054 17.9246 417.929C19.8938 419.804 21 422.348 21 425H20.9015C21.0329 446.992 29.8257 468.054 45.3859 483.614C61.0639 499.292 82.3279 508.1 104.5 508.1C126.672 508.1 147.936 499.292 163.614 483.614C178.969 468.26 187.734 447.547 188.089 425.871C188.051 425.584 188.025 425.294 188.012 425H188C188 424.919 188.001 424.838 188.003 424.757C188.001 424.672 188 424.586 188 424.5V274.334C185.077 278.218 181.87 281.915 178.393 285.393C158.795 304.99 132.215 316 104.5 316C76.7849 316 50.2049 304.99 30.6073 285.393C11.1277 265.913 0.13276 239.535 0.00119451 212H0C0 211.961 0.000235175 211.923 0.00070477 211.884C0.000235022 211.756 0 211.628 0 211.5H0.0131196C0.142859 209.03 1.23034 206.686 3.07538 204.929C5.04451 203.054 7.71523 202 10.5 202C13.2848 202 15.9555 203.054 17.9246 204.929C19.8938 206.804 21 209.348 21 212H20.9015C21.0328 233.992 29.8257 255.054 45.3859 270.614C61.0639 286.292 82.3279 295.1 104.5 295.1C126.672 295.1 147.936 286.292 163.614 270.614C178.326 255.903 186.988 236.273 188 215.59V212V92.5Z" fill="url(#paint0_linear_10_10)"/>
<path d="M35 83H34V84H35V83ZM35 101V100H34V101H35ZM35 110H34V111H35V110ZM35 128V127H34V128H35ZM35 137H34V138H35V137ZM35 155V154H34V155H35ZM208.999 424.884L207.999 424.881L207.999 424.889L207.999 424.896L208.999 424.884ZM209 425V426H210V425H209ZM208.999 425V424H208.004L207.999 424.995L208.999 425ZM178.393 498.393L177.686 497.686L177.686 497.686L178.393 498.393ZM30.6073 498.393L29.9002 499.1L29.9002 499.1L30.6073 498.393ZM0.00119444 425L1.00118 424.995L0.996428 424H0.00119444V425ZM0 425H-1V426H0V425ZM0.000704727 424.884L1.00063 424.896L1.00073 424.888L1.0007 424.88L0.000704727 424.884ZM0 424.5V423.5H-1V424.5H0ZM0.0131188 424.5V425.5H0.961975L1.01174 424.552L0.0131188 424.5ZM3.07538 417.929L3.76503 418.653L3.76504 418.653L3.07538 417.929ZM21 425V426H22V425H21ZM20.9015 425V424H19.8955L19.9015 425.006L20.9015 425ZM45.3859 483.614L46.093 482.907L46.093 482.907L45.3859 483.614ZM163.614 483.614L162.907 482.907L162.907 482.907L163.614 483.614ZM188.089 425.871L189.089 425.888L189.09 425.815L189.08 425.742L188.089 425.871ZM188.012 425L189.011 424.953L188.966 424H188.012V425ZM188 425H187V426H188V425ZM188.003 424.757L189.003 424.783L189.003 424.758L189.003 424.733L188.003 424.757ZM188 274.334H189V271.342L187.201 273.733L188 274.334ZM178.393 285.393L177.686 284.686L177.686 284.686L178.393 285.393ZM30.6073 285.393L31.3145 284.686L31.3145 284.686L30.6073 285.393ZM0.00119451 212L1.00118 211.995L0.996428 211H0.00119451V212ZM0 212H-1V213H0V212ZM0.00070477 211.884L1.00063 211.896L1.00073 211.888L1.0007 211.88L0.00070477 211.884ZM0 211.5V210.5H-1V211.5H0ZM0.0131196 211.5V212.5H0.961974L1.01174 211.552L0.0131196 211.5ZM3.07538 204.929L2.38573 204.205L2.38572 204.205L3.07538 204.929ZM17.9246 204.929L17.235 205.653L17.235 205.653L17.9246 204.929ZM21 212V213H22V212H21ZM20.9015 212V211H19.8955L19.9015 212.006L20.9015 212ZM45.3859 270.614L46.093 269.907L46.093 269.907L45.3859 270.614ZM163.614 270.614L164.321 271.321L164.321 271.321L163.614 270.614ZM188 215.59L188.999 215.638L189 215.614V215.59H188ZM173 69.5V208.5H175V69.5H173ZM104.5 1C142.332 1 173 31.6685 173 69.5H175C175 30.5639 143.436 -1 104.5 -1V1ZM36 69.5C36 31.6685 66.6685 1 104.5 1V-1C65.5639 -1 34 30.5639 34 69.5H36ZM36 83V69.5H34V83H36ZM64 82H35V84H64V82ZM74 92C74 86.4771 69.5229 82 64 82V84C68.4183 84 72 87.5817 72 92H74ZM64 102C69.5229 102 74 97.5229 74 92H72C72 96.4183 68.4183 100 64 100V102ZM35 102H64V100H35V102ZM36 110V101H34V110H36ZM64 109H35V111H64V109ZM74 119C74 113.477 69.5229 109 64 109V111C68.4183 111 72 114.582 72 119H74ZM64 129C69.5229 129 74 124.523 74 119H72C72 123.418 68.4183 127 64 127V129ZM35 129H64V127H35V129ZM36 137V128H34V137H36ZM64 136H35V138H64V136ZM74 146C74 140.477 69.5229 136 64 136V138C68.4183 138 72 141.582 72 146H74ZM64 156C69.5229 156 74 151.523 74 146H72C72 150.418 68.4183 154 64 154V156ZM35 156H64V154H35V156ZM36 208.5V155H34V208.5H36ZM104.5 277C66.6685 277 36 246.332 36 208.5H34C34 247.436 65.5639 279 104.5 279V277ZM173 208.5C173 246.332 142.332 277 104.5 277V279C143.436 279 175 247.436 175 208.5H173ZM198.5 81C192.149 81 187 86.1487 187 92.5H189C189 87.2533 193.253 83 198.5 83V81ZM210 92.5C210 86.1487 204.851 81 198.5 81V83C203.747 83 208 87.2533 208 92.5H210ZM210 211.5V92.5H208V211.5H210ZM210 212V211.5H208V212H210ZM210 424.5V212H208V424.5H210ZM209.999 424.888C210 424.759 210 424.629 210 424.5H208C208 424.627 208 424.754 207.999 424.881L209.999 424.888ZM210 425C210 424.957 210 424.915 209.999 424.872L207.999 424.896C208 424.931 208 424.965 208 425H210ZM208.999 426H209V424H208.999V426ZM179.1 499.1C198.766 479.434 209.866 452.803 209.999 425.005L207.999 424.995C207.869 452.266 196.979 478.392 177.686 497.686L179.1 499.1ZM104.5 530C132.48 530 159.315 518.885 179.1 499.1L177.686 497.686C158.276 517.096 131.95 528 104.5 528V530ZM29.9002 499.1C49.6853 518.885 76.5197 530 104.5 530V528C77.0501 528 50.7245 517.096 31.3145 497.686L29.9002 499.1ZM-0.998794 425.005C-0.865974 452.803 10.2342 479.434 29.9002 499.1L31.3145 497.686C12.0212 478.392 1.13149 452.266 1.00118 424.995L-0.998794 425.005ZM0 426H0.00119444V424H0V426ZM-0.999221 424.872C-0.99974 424.915 -1 424.957 -1 425H1C1 424.965 1.00021 424.931 1.00063 424.896L-0.999221 424.872ZM-1 424.5C-1 424.629 -0.999763 424.759 -0.999289 424.888L1.0007 424.88C1.00023 424.754 1 424.627 1 424.5H-1ZM0.0131188 423.5H0V425.5H0.0131188V423.5ZM2.38573 417.205C0.360398 419.134 -0.84203 421.716 -0.985505 424.448L1.01174 424.552C1.12774 422.344 2.10028 420.239 3.76503 418.653L2.38573 417.205ZM10.5 414C7.46533 414 4.54572 415.148 2.38572 417.205L3.76504 418.653C5.5433 416.959 7.96513 416 10.5 416V414ZM18.6143 417.205C16.4543 415.148 13.5347 414 10.5 414V416C13.0349 416 15.4567 416.959 17.235 418.653L18.6143 417.205ZM22 425C22 422.066 20.7759 419.264 18.6143 417.205L17.235 418.653C19.0116 420.345 20 422.629 20 425H22ZM20.9015 426H21V424H20.9015V426ZM46.093 482.907C30.719 467.533 22.0313 446.723 21.9015 424.994L19.9015 425.006C20.0344 447.261 28.9325 468.575 44.6788 484.321L46.093 482.907ZM104.5 507.1C82.5931 507.1 61.5835 498.398 46.093 482.907L44.6788 484.321C60.5444 500.187 82.0627 509.1 104.5 509.1V507.1ZM162.907 482.907C147.417 498.398 126.407 507.1 104.5 507.1V509.1C126.937 509.1 148.456 500.187 164.321 484.321L162.907 482.907ZM187.089 425.855C186.738 447.272 178.078 467.736 162.907 482.907L164.321 484.321C179.859 468.783 188.729 447.823 189.089 425.888L187.089 425.855ZM187.013 425.047C187.028 425.368 187.056 425.686 187.097 426.001L189.08 425.742C189.046 425.482 189.023 425.219 189.011 424.953L187.013 425.047ZM188 426H188.012V424H188V426ZM187.003 424.732C187.001 424.821 187 424.91 187 425H189C189 424.928 189.001 424.855 189.003 424.783L187.003 424.732ZM187 424.5C187 424.594 187.001 424.688 187.003 424.781L189.003 424.733C189.001 424.656 189 424.578 189 424.5H187ZM187 274.334V424.5H189V274.334H187ZM179.1 286.1C182.61 282.589 185.848 278.857 188.799 274.935L187.201 273.733C184.306 277.58 181.13 281.241 177.686 284.686L179.1 286.1ZM104.5 317C132.48 317 159.315 305.885 179.1 286.1L177.686 284.686C158.276 304.096 131.95 315 104.5 315V317ZM29.9002 286.1C49.6853 305.885 76.5197 317 104.5 317V315C77.0501 315 50.7245 304.096 31.3145 284.686L29.9002 286.1ZM-0.998794 212.005C-0.86597 239.803 10.2342 266.434 29.9002 286.1L31.3145 284.686C12.0212 265.392 1.13149 239.266 1.00118 211.995L-0.998794 212.005ZM0 213H0.00119451V211H0V213ZM-0.999221 211.872C-0.99974 211.915 -1 211.957 -1 212H1C1 211.965 1.00021 211.931 1.00063 211.896L-0.999221 211.872ZM-1 211.5C-1 211.629 -0.999763 211.759 -0.999288 211.888L1.0007 211.88C1.00023 211.754 1 211.627 1 211.5H-1ZM0.0131196 210.5H0V212.5H0.0131196V210.5ZM2.38572 204.205C0.360404 206.134 -0.842025 208.716 -0.985504 211.448L1.01174 211.552C1.12774 209.344 2.10028 207.239 3.76504 205.653L2.38572 204.205ZM10.5 201C7.46533 201 4.54572 202.148 2.38573 204.205L3.76503 205.653C5.5433 203.959 7.96513 203 10.5 203V201ZM18.6143 204.205C16.4543 202.148 13.5347 201 10.5 201V203C13.0349 203 15.4567 203.959 17.235 205.653L18.6143 204.205ZM22 212C22 209.066 20.7759 206.264 18.6143 204.205L17.235 205.653C19.0116 207.345 20 209.629 20 212H22ZM20.9015 213H21V211H20.9015V213ZM46.093 269.907C30.719 254.533 22.0313 233.723 21.9015 211.994L19.9015 212.006C20.0344 234.261 28.9325 255.575 44.6788 271.321L46.093 269.907ZM104.5 294.1C82.5931 294.1 61.5835 285.398 46.093 269.907L44.6788 271.321C60.5444 287.187 82.0627 296.1 104.5 296.1V294.1ZM162.907 269.907C147.417 285.398 126.407 294.1 104.5 294.1V296.1C126.937 296.1 148.456 287.187 164.321 271.321L162.907 269.907ZM187.001 215.541C186.001 235.977 177.442 255.372 162.907 269.907L164.321 271.321C179.209 256.434 187.974 236.569 188.999 215.638L187.001 215.541ZM187 212V215.59H189V212H187ZM187 92.5V212H189V92.5H187Z" fill="url(#paint1_linear_10_10)" mask="url(#path-1-inside-1_10_10)"/>
<defs>
<linearGradient id="paint0_linear_10_10" x1="104.5" y1="0" x2="104.5" y2="278" gradientUnits="userSpaceOnUse">
<stop stop-color="#005734"/>
<stop offset="1" stop-color="#00BD71"/>
</linearGradient>
<linearGradient id="paint1_linear_10_10" x1="104.5" y1="0" x2="104.5" y2="278" gradientUnits="userSpaceOnUse">
<stop stop-color="#005734"/>
<stop offset="1" stop-color="#00BD71"/>
</linearGradient>
</defs>
</svg>
